# xmcd
#
# Track frame offsets: 
#        150
#        20431
#        36298
#        52133
#        73525
#        89194
#        105689
#        125091
#        148185
#        162521
#        179321
#        191761
#        215449
#        264901
#        296217
#
# Disc length: 3999 seconds
#
# Revision: 2
# Processed by: cddbd v1.5.2PL0 Copyright (c) Steve Scherf et al.
# Submitted via: ExactAudioCopyFreeDBPlugin 1.0
#
DISCID=f40f9d0f
DTITLE=Johnny Winter - Playlist: The Very Best of Johnny Winter
DYEAR=2011
DGENRE=Blues
TTITLE0=I'm Yours and I'm Hers
TTITLE1=Rock and Roll, Hoochie Koo
TTITLE2=Hustled Down in Texas
TTITLE3=I'll Drown in My Own Tears
TTITLE4=Self Destructive Blue
TTITLE5=Miss Ann
TTITLE6=Prodigal Son
TTITLE7=Highway 61 Revisited
TTITLE8=TV Mama
TTITLE9=Still Alive and Well
TTITLE10=Johnny B. Goode
TTITLE11=Be Careful with a Fool
TTITLE12=Mean Town Blues (Live)
TTITLE13=Jumpin' Jack Flash (Live)
TTITLE14=Data Track
EXTD=
EXTT0=
EXTT1=
EXTT2=
EXTT3=
EXTT4=
EXTT5=
EXTT6=
EXTT7=
EXTT8=
EXTT9=
EXTT10=
EXTT11=
EXTT12=
EXTT13=
EXTT14=
PLAYORDER=
